<svg width="284" height="46" viewBox="0 0 284 46" fill="none" xmlns="http://www.w3.org/2000/svg">
<path d="M110.135 2.99995H9.53468C9.16798 2.99995 8.80568 2.99995 8.43995 3.00195C8.1338 3.00395 7.83009 3.00976 7.521 3.01465C6.84951 3.02255 6.17961 3.08162 5.5171 3.19136C4.85552 3.30348 4.21467 3.51486 3.61622 3.81836C3.0185 4.12442 2.47235 4.52211 1.99757 4.99702C1.5203 5.47058 1.12246 6.01796 0.81935 6.61811C0.5154 7.21706 0.304641 7.85889 0.19435 8.52143C0.0830109 9.18313 0.0230984 9.85247 0.01515 10.5234C0.00587 10.83 0.00489 11.1376 0 11.4443V34.5585C0.00489 34.869 0.00587 35.1698 0.01515 35.4804C0.0231008 36.1514 0.0830134 36.8207 0.19435 37.4823C0.304336 38.1453 0.515108 38.7875 0.81935 39.3866C1.12233 39.9848 1.52022 40.53 1.99757 41.0009C2.47054 41.478 3.01705 41.8759 3.61622 42.1796C4.21467 42.484 4.85545 42.6966 5.5171 42.8104C6.17972 42.9193 6.84956 42.9784 7.521 42.9872C7.83009 42.994 8.1338 42.9979 8.43995 42.9979C8.80567 42.9999 9.168 42.9999 9.53468 42.9999H110.135C110.494 42.9999 110.859 42.9999 111.219 42.9979C111.523 42.9979 111.836 42.994 112.141 42.9872C112.811 42.9789 113.479 42.9198 114.141 42.8104C114.804 42.6958 115.448 42.4832 116.049 42.1796C116.647 41.8758 117.193 41.4778 117.666 41.0009C118.142 40.5282 118.541 39.9834 118.848 39.3866C119.15 38.787 119.358 38.1449 119.467 37.4823C119.578 36.8206 119.64 36.1514 119.652 35.4804C119.656 35.1698 119.656 34.869 119.656 34.5585C119.664 34.1952 119.664 33.8339 119.664 33.4647V12.5361C119.664 12.1699 119.664 11.8066 119.656 11.4443C119.656 11.1376 119.656 10.83 119.652 10.5234C119.64 9.85237 119.578 9.18318 119.467 8.52139C119.358 7.85923 119.149 7.21745 118.848 6.61807C118.23 5.41514 117.252 4.43597 116.049 3.81827C115.448 3.51551 114.804 3.30419 114.141 3.19127C113.48 3.08105 112.811 3.02195 112.141 3.01451C111.836 3.00963 111.523 3.00377 111.219 3.00182C110.859 2.99982 110.494 2.99982 110.135 2.99982V2.99995Z" fill="#A6A6A6"/>
<path d="M8.44483 42.1249C8.14015 42.1249 7.84283 42.121 7.54054 42.1142C6.91432 42.1061 6.28957 42.0516 5.6714 41.9511C5.09499 41.8519 4.5366 41.6672 4.01466 41.4032C3.4975 41.1415 3.02581 40.7982 2.61766 40.3866C2.2036 39.9799 1.85888 39.5082 1.59715 38.9901C1.33254 38.4687 1.14941 37.9098 1.05415 37.3329C0.951273 36.7131 0.895613 36.0863 0.887649 35.4579C0.881309 35.247 0.873009 34.5448 0.873009 34.5448V11.4443C0.873009 11.4443 0.881849 10.7529 0.887699 10.5497C0.895325 9.92242 0.950661 9.29659 1.05323 8.67767C1.14867 8.09919 1.33194 7.53869 1.59669 7.01557C1.85745 6.49788 2.20026 6.0258 2.61183 5.61762C3.02293 5.20556 3.49613 4.86054 4.01417 4.59515C4.53491 4.33203 5.09224 4.14867 5.66749 4.05121C6.28769 3.94978 6.91461 3.89494 7.543 3.88715L8.44532 3.87494H111.214L112.127 3.88764C112.75 3.89504 113.371 3.94939 113.985 4.05023C114.566 4.14891 115.13 4.33355 115.656 4.59808C116.694 5.13293 117.539 5.9791 118.071 7.01801C118.332 7.53752 118.512 8.09345 118.606 8.66693C118.71 9.29093 118.768 9.92168 118.78 10.5541C118.783 10.8373 118.783 11.1415 118.783 11.4443C118.791 11.8193 118.791 12.1762 118.791 12.5361V33.4647C118.791 33.828 118.791 34.1825 118.783 34.5399C118.783 34.8651 118.783 35.163 118.779 35.4696C118.768 36.0908 118.71 36.7103 118.608 37.3231C118.515 37.9042 118.333 38.4674 118.068 38.9931C117.805 39.5056 117.462 39.9732 117.053 40.3788C116.644 40.7926 116.172 41.1379 115.653 41.4013C115.128 41.6673 114.566 41.8527 113.985 41.9511C113.367 42.0521 112.742 42.1066 112.116 42.1142C111.823 42.121 111.517 42.1249 111.219 42.1249L110.135 42.1269L8.44483 42.1249Z" fill="black"/>
<path d="M24.7689 23.3011C24.7796 22.4664 25.0013 21.648 25.4134 20.9221C25.8254 20.1961 26.4143 19.5862 27.1254 19.149C26.6737 18.5038 26.0777 17.9729 25.3849 17.5983C24.6921 17.2238 23.9215 17.016 23.1343 16.9913C21.455 16.8151 19.8271 17.9962 18.9714 17.9962C18.0991 17.9962 16.7816 17.0088 15.3629 17.038C14.4452 17.0677 13.5509 17.3345 12.767 17.8126C11.9831 18.2906 11.3364 18.9636 10.89 19.7659C8.95595 23.1143 10.3985 28.0354 12.2511 30.742C13.178 32.0673 14.2613 33.5478 15.6788 33.4953C17.0658 33.4377 17.5839 32.6108 19.2582 32.6108C20.9169 32.6108 21.403 33.4953 22.8492 33.4619C24.3376 33.4377 25.2753 32.1306 26.1697 30.7927C26.8357 29.8484 27.3481 28.8047 27.6881 27.7002C26.8234 27.3345 26.0855 26.7223 25.5664 25.94C25.0472 25.1577 24.7699 24.2399 24.7689 23.3011Z" fill="white"/>
<path d="M22.0372 15.2113C22.8488 14.2371 23.2486 12.9849 23.1518 11.7206C21.9119 11.8509 20.7667 12.4434 19.9442 13.3803C19.542 13.8379 19.234 14.3704 19.0378 14.9471C18.8415 15.5239 18.7609 16.1337 18.8005 16.7416C19.4206 16.748 20.0341 16.6136 20.5948 16.3485C21.1554 16.0834 21.6486 15.6946 22.0372 15.2113Z" fill="white"/>
<path d="M42.3022 30.1396H37.5688L36.4321 33.4961H34.4272L38.9106 21.0781H40.9936L45.477 33.4961H43.438L42.3022 30.1396ZM38.0591 28.5908H41.8111L39.9615 23.1435H39.9097L38.0591 28.5908Z" fill="white"/>
<path d="M55.1597 28.9694C55.1597 31.7829 53.6538 33.5905 51.3813 33.5905C50.8057 33.6206 50.2332 33.488 49.7294 33.2079C49.2256 32.9277 48.8109 32.5114 48.5327 32.0065H48.4897V36.4909H46.6313V24.442H48.4302V25.9479H48.4644C48.7553 25.4454 49.177 25.0312 49.6847 24.7494C50.1923 24.4676 50.7668 24.3286 51.3472 24.3473C53.645 24.3473 55.1597 26.1637 55.1597 28.9694ZM53.2495 28.9694C53.2495 27.1364 52.3022 25.9313 50.8569 25.9313C49.437 25.9313 48.4819 27.1618 48.4819 28.9694C48.4819 30.7936 49.437 32.0153 50.8569 32.0153C52.3022 32.0153 53.2495 30.819 53.2495 28.9694Z" fill="white"/>
<path d="M65.1245 28.9694C65.1245 31.7829 63.6187 33.5905 61.3462 33.5905C60.7705 33.6206 60.198 33.488 59.6942 33.2078C59.1905 32.9277 58.7757 32.5114 58.4976 32.0065H58.4546V36.4909H56.5962V24.442H58.395V25.9479H58.4292C58.7201 25.4454 59.1418 25.0312 59.6495 24.7494C60.1571 24.4675 60.7317 24.3286 61.312 24.3473C63.6099 24.3473 65.1245 26.1637 65.1245 28.9694ZM63.2144 28.9694C63.2144 27.1364 62.2671 25.9313 60.8218 25.9313C59.4018 25.9313 58.4468 27.1618 58.4468 28.9694C58.4468 30.7936 59.4018 32.0153 60.8218 32.0153C62.2671 32.0153 63.2144 30.819 63.2144 28.9694H63.2144Z" fill="white"/>
<path d="M71.7104 30.0361C71.8481 31.2676 73.0444 32.0761 74.6792 32.0761C76.2456 32.0761 77.3726 31.2675 77.3726 30.1572C77.3726 29.1933 76.6929 28.6162 75.0835 28.2207L73.4741 27.833C71.1939 27.2822 70.1353 26.2158 70.1353 24.4853C70.1353 22.3427 72.0024 20.871 74.6538 20.871C77.2778 20.871 79.0767 22.3427 79.1372 24.4853H77.2612C77.1489 23.246 76.1245 22.498 74.6274 22.498C73.1303 22.498 72.1059 23.2548 72.1059 24.3564C72.1059 25.2343 72.7602 25.7509 74.3608 26.1464L75.729 26.4823C78.2768 27.0849 79.3354 28.1083 79.3354 29.9247C79.3354 32.248 77.4848 33.703 74.5415 33.703C71.7876 33.703 69.9282 32.2821 69.8081 30.036L71.7104 30.0361Z" fill="white"/>
<path d="M83.3462 22.2998V24.4424H85.0679V25.9141H83.3462V30.9053C83.3462 31.6807 83.6909 32.042 84.4477 32.042C84.6521 32.0384 84.8562 32.0241 85.0591 31.999V33.4619C84.7188 33.5255 84.3729 33.5543 84.0268 33.5478C82.1938 33.5478 81.479 32.8593 81.479 31.1035V25.9141H80.1626V24.4424H81.479V22.2998H83.3462Z" fill="white"/>
<path d="M86.065 28.9697C86.065 26.1211 87.7427 24.3311 90.3589 24.3311C92.9839 24.3311 94.6538 26.1211 94.6538 28.9697C94.6538 31.8262 92.9927 33.6084 90.3589 33.6084C87.7261 33.6084 86.065 31.8262 86.065 28.9697ZM92.7603 28.9697C92.7603 27.0156 91.8648 25.8623 90.3589 25.8623C88.853 25.8623 87.9585 27.0244 87.9585 28.9697C87.9585 30.9316 88.853 32.0762 90.3589 32.0762C91.8648 32.0762 92.7602 30.9316 92.7602 28.9697H92.7603Z" fill="white"/>
<path d="M96.186 24.442H97.9585V25.983H98.0015C98.1214 25.5017 98.4034 25.0763 98.8 24.7785C99.1966 24.4806 99.6836 24.3283 100.179 24.3472C100.393 24.3465 100.607 24.3697 100.816 24.4166V26.1548C100.546 26.0722 100.264 26.0343 99.981 26.0425C99.711 26.0316 99.4418 26.0792 99.192 26.1821C98.9421 26.285 98.7175 26.4407 98.5335 26.6386C98.3496 26.8365 98.2106 27.0718 98.1262 27.3285C98.0417 27.5852 98.0139 27.8571 98.0444 28.1255V33.4957H96.186L96.186 24.442Z" fill="white"/>
<path d="M109.384 30.8369C109.134 32.4805 107.534 33.6084 105.486 33.6084C102.852 33.6084 101.217 31.8437 101.217 29.0127C101.217 26.1729 102.861 24.3311 105.408 24.3311C107.913 24.3311 109.488 26.0518 109.488 28.7969V29.4336H103.093V29.5459C103.064 29.8791 103.105 30.2148 103.216 30.5306C103.326 30.8464 103.502 31.1352 103.732 31.3778C103.963 31.6203 104.242 31.8111 104.552 31.9374C104.861 32.0637 105.195 32.1226 105.529 32.1103C105.968 32.1515 106.409 32.0498 106.785 31.8203C107.162 31.5909 107.455 31.246 107.62 30.8369L109.384 30.8369ZM103.102 28.1348H107.628C107.645 27.8352 107.6 27.5354 107.495 27.2541C107.39 26.9729 107.229 26.7164 107.02 26.5006C106.812 26.2849 106.561 26.1145 106.283 26.0003C106.006 25.8861 105.708 25.8305 105.408 25.8369C105.105 25.8351 104.805 25.8933 104.525 26.008C104.245 26.1227 103.99 26.2918 103.776 26.5054C103.562 26.7191 103.392 26.973 103.276 27.2527C103.16 27.5323 103.101 27.8321 103.102 28.1348V28.1348Z" fill="white"/>
<path d="M37.8262 11.7305C38.2158 11.7025 38.6067 11.7614 38.9709 11.9028C39.335 12.0442 39.6632 12.2647 39.9317 12.5483C40.2003 12.832 40.4026 13.1717 40.524 13.5429C40.6454 13.9142 40.6829 14.3078 40.6338 14.6953C40.6338 16.6016 39.6035 17.6973 37.8262 17.6973H35.6709V11.7305H37.8262ZM36.5976 16.8535H37.7226C38.0011 16.8701 38.2797 16.8245 38.5382 16.7198C38.7967 16.6152 39.0287 16.4543 39.2172 16.2487C39.4057 16.0432 39.546 15.7981 39.6278 15.5315C39.7097 15.2649 39.7311 14.9834 39.6904 14.7075C39.7281 14.4326 39.7046 14.1529 39.6215 13.8882C39.5383 13.6235 39.3977 13.3805 39.2096 13.1766C39.0216 12.9727 38.7907 12.8129 38.5337 12.7086C38.2766 12.6044 37.9996 12.5583 37.7226 12.5737H36.5976V16.8535Z" fill="white"/>
<path d="M41.6807 15.4438C41.6523 15.1479 41.6862 14.8493 41.78 14.5672C41.8739 14.2852 42.0256 14.0258 42.2256 13.8059C42.4255 13.5859 42.6692 13.4101 42.9411 13.2898C43.2129 13.1696 43.5069 13.1074 43.8042 13.1074C44.1015 13.1074 44.3954 13.1696 44.6673 13.2898C44.9391 13.4101 45.1829 13.5859 45.3828 13.8059C45.5827 14.0258 45.7345 14.2852 45.8283 14.5672C45.9222 14.8493 45.956 15.1479 45.9277 15.4438C45.9566 15.74 45.9231 16.039 45.8295 16.3215C45.7359 16.6041 45.5843 16.8639 45.3843 17.0843C45.1843 17.3047 44.9404 17.4808 44.6683 17.6014C44.3961 17.7219 44.1018 17.7842 43.8042 17.7842C43.5066 17.7842 43.2122 17.7219 42.9401 17.6014C42.668 17.4808 42.4241 17.3047 42.2241 17.0843C42.0241 16.8639 41.8724 16.6041 41.7788 16.3215C41.6853 16.039 41.6518 15.74 41.6807 15.4438ZM45.0137 15.4438C45.0137 14.4677 44.5752 13.8969 43.8057 13.8969C43.0332 13.8969 42.5987 14.4677 42.5987 15.4438C42.5987 16.4277 43.0332 16.9941 43.8057 16.9941C44.5752 16.9941 45.0137 16.4238 45.0137 15.4438H45.0137Z" fill="white"/>
<path d="M51.5732 17.6972H50.6514L49.7207 14.3808H49.6504L48.7236 17.6972H47.8105L46.5693 13.1943H47.4707L48.2773 16.6303H48.3438L49.2695 13.1943H50.1221L51.0479 16.6303H51.1182L51.9209 13.1943H52.8096L51.5732 17.6972Z" fill="white"/>
<path d="M53.8535 13.1938H54.709V13.9092H54.7754C54.888 13.6522 55.0781 13.4369 55.3189 13.2931C55.5598 13.1493 55.8395 13.0842 56.1191 13.1069C56.3382 13.0904 56.5582 13.1235 56.7628 13.2036C56.9674 13.2837 57.1514 13.4088 57.3011 13.5696C57.4508 13.7305 57.5623 13.9229 57.6275 14.1327C57.6927 14.3426 57.7099 14.5644 57.6777 14.7817V17.6967H56.7891V15.0049C56.7891 14.2812 56.4746 13.9214 55.8174 13.9214C55.6686 13.9144 55.5201 13.9398 55.3821 13.9956C55.244 14.0514 55.1197 14.1364 55.0175 14.2448C54.9154 14.3532 54.8379 14.4824 54.7904 14.6235C54.7429 14.7647 54.7264 14.9144 54.7422 15.0625V17.6968H53.8535L53.8535 13.1938Z" fill="white"/>
<path d="M59.0938 11.4365H59.9824V17.6972H59.0938V11.4365Z" fill="white"/>
<path d="M61.2178 15.4438C61.1895 15.1479 61.2234 14.8493 61.3172 14.5672C61.4111 14.2851 61.5629 14.0258 61.7628 13.8058C61.9628 13.5858 62.2065 13.41 62.4784 13.2898C62.7503 13.1695 63.0443 13.1074 63.3416 13.1074C63.6388 13.1074 63.9328 13.1695 64.2047 13.2898C64.4766 13.41 64.7203 13.5858 64.9203 13.8058C65.1202 14.0258 65.272 14.2851 65.3659 14.5672C65.4597 14.8493 65.4936 15.1479 65.4653 15.4438C65.4941 15.7401 65.4607 16.039 65.367 16.3216C65.2734 16.6041 65.1217 16.8639 64.9217 17.0843C64.7217 17.3047 64.4778 17.4808 64.2057 17.6014C63.9335 17.7219 63.6392 17.7842 63.3416 17.7842C63.0439 17.7842 62.7496 17.7219 62.4774 17.6014C62.2053 17.4808 61.9614 17.3047 61.7614 17.0843C61.5614 16.8639 61.4097 16.6041 61.3161 16.3216C61.2224 16.039 61.189 15.7401 61.2178 15.4438ZM64.5508 15.4438C64.5508 14.4678 64.1123 13.897 63.3428 13.897C62.5703 13.897 62.1358 14.4678 62.1358 15.4438C62.1358 16.4277 62.5703 16.9941 63.3428 16.9941C64.1123 16.9941 64.5508 16.4238 64.5508 15.4438H64.5508Z" fill="white"/>
<path d="M66.4009 16.4238C66.4009 15.6132 67.0044 15.1459 68.0757 15.0795L69.2954 15.0092V14.6205C69.2954 14.145 68.981 13.8764 68.3735 13.8764C67.8774 13.8764 67.5337 14.0585 67.4351 14.3769H66.5747C66.6655 13.6035 67.3931 13.1074 68.4146 13.1074C69.5435 13.1074 70.1802 13.6694 70.1802 14.6205V17.6972H69.3247V17.0644H69.2544C69.1117 17.2914 68.9113 17.4764 68.6737 17.6006C68.436 17.7249 68.1697 17.7838 67.9019 17.7714C67.7128 17.7911 67.5218 17.7709 67.341 17.7122C67.1602 17.6535 66.9938 17.5576 66.8524 17.4306C66.711 17.3036 66.5977 17.1484 66.52 16.975C66.4422 16.8016 66.4016 16.6138 66.4009 16.4238ZM69.2954 16.039V15.6625L68.1958 15.7328C67.5757 15.7743 67.2944 15.9853 67.2944 16.3823C67.2944 16.7875 67.646 17.0234 68.1294 17.0234C68.2711 17.0377 68.4142 17.0234 68.5502 16.9813C68.6862 16.9392 68.8123 16.8702 68.9211 16.7784C69.0299 16.6865 69.1191 16.5737 69.1834 16.4467C69.2477 16.3197 69.2858 16.181 69.2954 16.039Z" fill="white"/>
<path d="M71.3481 15.4438C71.3481 14.021 72.0796 13.1196 73.2173 13.1196C73.4987 13.1066 73.778 13.174 74.0225 13.3139C74.267 13.4538 74.4667 13.6604 74.5981 13.9096H74.6646V11.4365H75.5532V17.6972H74.7017V16.9858H74.6314C74.4897 17.2333 74.2831 17.4373 74.0339 17.5758C73.7846 17.7143 73.5022 17.7819 73.2173 17.7714C72.0718 17.7715 71.3481 16.8701 71.3481 15.4438ZM72.2661 15.4438C72.2661 16.3989 72.7163 16.9736 73.4693 16.9736C74.2183 16.9736 74.6812 16.3906 74.6812 15.4477C74.6812 14.5092 74.2134 13.9179 73.4693 13.9179C72.7212 13.9179 72.2661 14.4965 72.2661 15.4438H72.2661Z" fill="white"/>
<path d="M79.23 15.4438C79.2017 15.1479 79.2355 14.8493 79.3294 14.5672C79.4232 14.2852 79.575 14.0258 79.7749 13.8059C79.9748 13.5859 80.2186 13.4101 80.4904 13.2898C80.7623 13.1696 81.0563 13.1074 81.3535 13.1074C81.6508 13.1074 81.9448 13.1696 82.2166 13.2898C82.4885 13.4101 82.7322 13.5859 82.9321 13.8059C83.1321 14.0258 83.2838 14.2852 83.3777 14.5672C83.4715 14.8493 83.5054 15.1479 83.4771 15.4438C83.5059 15.74 83.4725 16.039 83.3789 16.3215C83.2853 16.6041 83.1336 16.8639 82.9336 17.0843C82.7336 17.3047 82.4897 17.4808 82.2176 17.6014C81.9455 17.7219 81.6511 17.7842 81.3535 17.7842C81.0559 17.7842 80.7616 17.7219 80.4894 17.6014C80.2173 17.4808 79.9734 17.3047 79.7734 17.0843C79.5734 16.8639 79.4218 16.6041 79.3282 16.3215C79.2346 16.039 79.2011 15.74 79.23 15.4438ZM82.563 15.4438C82.563 14.4677 82.1245 13.8969 81.355 13.8969C80.5825 13.8969 80.148 14.4677 80.148 15.4438C80.148 16.4277 80.5826 16.9941 81.355 16.9941C82.1245 16.9941 82.563 16.4238 82.563 15.4438Z" fill="white"/>
<path d="M84.6694 13.1938H85.5249V13.9092H85.5913C85.704 13.6522 85.894 13.4369 86.1348 13.2931C86.3757 13.1493 86.6555 13.0842 86.9351 13.1069C87.1542 13.0904 87.3742 13.1235 87.5788 13.2036C87.7834 13.2837 87.9673 13.4088 88.117 13.5696C88.2667 13.7305 88.3783 13.9229 88.4435 14.1327C88.5087 14.3426 88.5258 14.5644 88.4937 14.7817V17.6967H87.605V15.0049C87.605 14.2812 87.2905 13.9214 86.6333 13.9214C86.4846 13.9144 86.336 13.9398 86.198 13.9956C86.0599 14.0514 85.9356 14.1364 85.8335 14.2448C85.7313 14.3532 85.6539 14.4824 85.6063 14.6235C85.5588 14.7647 85.5423 14.9144 85.5581 15.0625V17.6968H84.6694V13.1938Z" fill="white"/>
<path d="M93.5151 12.0732V13.2148H94.4907V13.9633H93.5151V16.2788C93.5151 16.7504 93.7095 16.957 94.1519 16.957C94.2651 16.9566 94.3783 16.9498 94.4907 16.9365V17.6767C94.3311 17.7052 94.1694 17.7204 94.0073 17.7221C93.019 17.7221 92.6255 17.3744 92.6255 16.5063V13.9633H91.9106V13.2147H92.6255V12.0732H93.5151Z" fill="white"/>
<path d="M95.7046 11.4365H96.5854V13.9179H96.6558C96.7739 13.6586 96.9691 13.442 97.2148 13.2977C97.4605 13.1533 97.7447 13.0882 98.0288 13.1113C98.2467 13.0994 98.4646 13.1358 98.6669 13.2178C98.8692 13.2999 99.0508 13.4256 99.199 13.5859C99.3471 13.7462 99.458 13.9373 99.5238 14.1454C99.5896 14.3536 99.6086 14.5736 99.5795 14.79V17.6972H98.69V15.0092C98.69 14.29 98.355 13.9257 97.7271 13.9257C97.5743 13.9132 97.4207 13.9342 97.2769 13.9872C97.1332 14.0403 97.0027 14.1241 96.8947 14.2329C96.7867 14.3416 96.7038 14.4726 96.6517 14.6168C96.5997 14.7609 96.5797 14.9147 96.5933 15.0673V17.6972H95.7046L95.7046 11.4365Z" fill="white"/>
<path d="M104.761 16.4814C104.641 16.8929 104.379 17.2489 104.022 17.4871C103.666 17.7252 103.236 17.8304 102.81 17.7841C102.513 17.792 102.219 17.7351 101.946 17.6176C101.674 17.5001 101.43 17.3247 101.232 17.1035C101.034 16.8824 100.887 16.6208 100.8 16.337C100.713 16.0532 100.689 15.7539 100.73 15.4599C100.69 15.165 100.715 14.8651 100.801 14.5804C100.888 14.2958 101.034 14.033 101.231 13.8099C101.428 13.5868 101.671 13.4087 101.942 13.2875C102.214 13.1663 102.509 13.1048 102.806 13.1074C104.059 13.1074 104.815 13.9634 104.815 15.3774V15.6875H101.635V15.7373C101.621 15.9025 101.642 16.0688 101.696 16.2256C101.75 16.3823 101.837 16.5261 101.95 16.6475C102.062 16.769 102.2 16.8655 102.352 16.9309C102.504 16.9963 102.669 17.0291 102.834 17.0273C103.047 17.0528 103.262 17.0145 103.453 16.9173C103.644 16.8201 103.801 16.6683 103.906 16.4814L104.761 16.4814ZM101.635 15.0302H103.91C103.921 14.8791 103.9 14.7273 103.849 14.5846C103.798 14.4419 103.718 14.3114 103.614 14.2015C103.509 14.0917 103.383 14.0049 103.243 13.9467C103.103 13.8885 102.953 13.8603 102.801 13.8637C102.648 13.8618 102.495 13.8907 102.353 13.9486C102.21 14.0065 102.081 14.0924 101.972 14.2011C101.864 14.3098 101.778 14.4392 101.72 14.5816C101.662 14.724 101.633 14.8765 101.635 15.0302H101.635Z" fill="white"/>
</svg>
