<svg width="16" height="20" viewBox="0 0 16 20" fill="none" xmlns="http://www.w3.org/2000/svg">
<path d="M2 4.386V8C2.00014 9.28542 2.27502 10.556 2.80622 11.7265C3.33741 12.897 4.11266 13.9405 5.08 14.787L8 17.342L10.92 14.787C11.8874 13.9405 12.6627 12.8971 13.1939 11.7265C13.7251 10.556 13.9999 9.28543 14 8V4.386L8 2.136L2 4.386ZM0.649 2.756L8 0L15.351 2.757C15.5416 2.82844 15.7058 2.95632 15.8218 3.12357C15.9377 3.29082 15.9999 3.48948 16 3.693V8C16 11.177 14.628 14.2 12.237 16.293L8 20L3.763 16.293C2.58096 15.2587 1.63369 13.9837 0.98469 12.5534C0.335689 11.1231 -4.31722e-05 9.57064 4.16394e-09 8V3.693C7.64239e-05 3.48948 0.062251 3.29082 0.178219 3.12357C0.294187 2.95632 0.458426 2.82844 0.649 2.757V2.756ZM6.939 10.268L10.475 6.732C10.6636 6.54984 10.9162 6.44905 11.1784 6.45133C11.4406 6.4536 11.6914 6.55877 11.8768 6.74418C12.0622 6.92959 12.1674 7.1804 12.1697 7.4426C12.172 7.7048 12.0712 7.9574 11.889 8.146L7.646 12.39C7.45847 12.5775 7.20416 12.6828 6.939 12.6828C6.67384 12.6828 6.41953 12.5775 6.232 12.39L4.111 10.269C3.92884 10.0804 3.82805 9.8278 3.83033 9.5656C3.8326 9.3034 3.93777 9.05259 4.12318 8.86718C4.30859 8.68177 4.5594 8.5766 4.8216 8.57433C5.0838 8.57205 5.3364 8.67284 5.525 8.855L6.939 10.269V10.268Z" fill="#0F172A"/>
</svg>
