<svg width="284" height="46" viewBox="0 0 284 46" fill="none" xmlns="http://www.w3.org/2000/svg">
<path d="M130 3H5C2.23858 3 0 5.23858 0 8V38C0 40.7614 2.23858 43 5 43H130C132.761 43 135 40.7614 135 38V8C135 5.23858 132.761 3 130 3Z" fill="black"/>
<path d="M130 3.8C131.114 3.8 132.182 4.2425 132.97 5.03015C133.758 5.8178 134.2 6.88609 134.2 8V38C134.2 39.1139 133.758 40.1822 132.97 40.9698C132.182 41.7575 131.114 42.2 130 42.2H5C3.88609 42.2 2.8178 41.7575 2.03015 40.9698C1.2425 40.1822 0.8 39.1139 0.8 38V8C0.8 6.88609 1.2425 5.8178 2.03015 5.03015C2.8178 4.2425 3.88609 3.8 5 3.8H130ZM130 3H5C3.67392 3 2.40215 3.52678 1.46447 4.46447C0.526784 5.40215 0 6.67392 0 8V38C0 39.3261 0.526784 40.5979 1.46447 41.5355C2.40215 42.4732 3.67392 43 5 43H130C131.326 43 132.598 42.4732 133.536 41.5355C134.473 40.5979 135 39.3261 135 38V8C135 6.67392 134.473 5.40215 133.536 4.46447C132.598 3.52678 131.326 3 130 3Z" fill="#A6A6A6"/>
<path d="M44.3757 13.4858H46.4666V16.3869C46.1529 16.4933 45.8297 16.5724 45.4969 16.6242C45.1668 16.676 44.7972 16.702 44.388 16.702C43.7661 16.702 43.2409 16.5778 42.8127 16.3296C42.3871 16.0814 42.0639 15.7281 41.8429 15.2698C41.622 14.8088 41.5115 14.2619 41.5115 13.629C41.5115 13.0098 41.6329 12.4697 41.8756 12.0087C42.1212 11.5477 42.4744 11.1903 42.9354 10.9366C43.3992 10.6802 43.9556 10.552 44.6049 10.552C44.9377 10.552 45.2527 10.5834 45.5501 10.6461C45.8501 10.7061 46.1284 10.792 46.3848 10.9039L46.1188 11.5095C45.8979 11.414 45.6537 11.3322 45.3864 11.264C45.1218 11.1958 44.8477 11.1617 44.564 11.1617C44.0757 11.1617 43.6569 11.2626 43.3078 11.4645C42.9613 11.6663 42.6954 11.9514 42.5099 12.3196C42.3271 12.6879 42.2357 13.1244 42.2357 13.629C42.2357 14.1282 42.3162 14.5633 42.4771 14.9343C42.6381 15.3026 42.889 15.589 43.23 15.7936C43.571 15.9982 44.0102 16.1005 44.5476 16.1005C44.8176 16.1005 45.0495 16.0855 45.2432 16.0554C45.4369 16.0227 45.6128 15.9845 45.771 15.9409V14.1078H44.3757V13.4858ZM51.2459 16.6201H47.9151V10.6379H51.2459V11.2517H48.6107V13.1871H51.0945V13.7927H48.6107V16.0063H51.2459V16.6201ZM54.4088 16.6201H53.7091V11.2517H51.8269V10.6379H56.2829V11.2517H54.4088V16.6201ZM59.364 16.6201V10.6379H60.0596V16.6201H59.364ZM63.5417 16.6201H62.842V11.2517H60.9598V10.6379H65.4158V11.2517H63.5417V16.6201ZM73.6853 13.6208C73.6853 14.0818 73.6266 14.5019 73.5093 14.8811C73.392 15.2575 73.2174 15.5822 72.9856 15.855C72.7564 16.125 72.4714 16.3337 72.1304 16.481C71.7894 16.6283 71.3939 16.702 70.9438 16.702C70.48 16.702 70.0749 16.6283 69.7285 16.481C69.3848 16.3337 69.0984 16.1236 68.8692 15.8509C68.6428 15.5781 68.4723 15.2521 68.3578 14.8729C68.2459 14.4937 68.19 14.0737 68.19 13.6126C68.19 13.0016 68.2909 12.4656 68.4928 12.0046C68.6946 11.5436 69.0002 11.1848 69.4093 10.9284C69.8213 10.672 70.3368 10.5438 70.956 10.5438C71.548 10.5438 72.0458 10.6706 72.4496 10.9243C72.856 11.178 73.1629 11.5354 73.3702 11.9964C73.5803 12.4547 73.6853 12.9961 73.6853 13.6208ZM68.9224 13.6208C68.9224 14.1282 68.9947 14.5674 69.1393 14.9384C69.2839 15.3094 69.5048 15.5958 69.8022 15.7977C70.1022 15.9995 70.4828 16.1005 70.9438 16.1005C71.4075 16.1005 71.7867 15.9995 72.0813 15.7977C72.3786 15.5958 72.5982 15.3094 72.7401 14.9384C72.8819 14.5674 72.9528 14.1282 72.9528 13.6208C72.9528 12.8488 72.7905 12.246 72.4659 11.8123C72.144 11.3758 71.6407 11.1576 70.956 11.1576C70.4923 11.1576 70.1104 11.2571 69.8103 11.4563C69.5103 11.6554 69.2866 11.9391 69.1393 12.3074C68.9947 12.6729 68.9224 13.1107 68.9224 13.6208ZM79.6961 16.6201H78.8941L75.633 11.5954H75.6002C75.6084 11.7291 75.618 11.8818 75.6289 12.0537C75.6398 12.2228 75.648 12.4042 75.6534 12.5979C75.6616 12.7888 75.6657 12.9839 75.6657 13.183V16.6201H75.0192V10.6379H75.8171L79.066 15.6463H79.0946C79.0892 15.5508 79.0824 15.4158 79.0742 15.2412C79.066 15.0639 79.0578 14.8743 79.0496 14.6724C79.0442 14.4678 79.0414 14.2782 79.0414 14.1037V10.6379H79.6961V16.6201Z" fill="white"/>
<path d="M44.3757 13.4858V13.3858H44.2757V13.4858H44.3757ZM46.4666 13.4858H46.5666V13.3858H46.4666V13.4858ZM46.4666 16.3869L46.4988 16.4816L46.5666 16.4586V16.3869H46.4666ZM45.4969 16.6242L45.4815 16.5254L45.4814 16.5254L45.4969 16.6242ZM42.8127 16.3296L42.7623 16.416L42.7625 16.4161L42.8127 16.3296ZM41.8429 15.2698L41.7527 15.313L41.7528 15.3133L41.8429 15.2698ZM41.8756 12.0087L41.7874 11.9617L41.7872 11.9621L41.8756 12.0087ZM42.9354 10.9366L42.9836 11.0242L42.9838 11.0241L42.9354 10.9366ZM45.5501 10.6461L45.5294 10.7439L45.5305 10.7442L45.5501 10.6461ZM46.3848 10.9039L46.4764 10.9441L46.5167 10.8523L46.4248 10.8122L46.3848 10.9039ZM46.1188 11.5095L46.0792 11.6013L46.1704 11.6407L46.2104 11.5497L46.1188 11.5095ZM45.3864 11.264L45.3614 11.3608L45.3617 11.3609L45.3864 11.264ZM43.3078 11.4645L43.2577 11.3779L43.2574 11.3781L43.3078 11.4645ZM42.5099 12.3196L42.4206 12.2747L42.4203 12.2752L42.5099 12.3196ZM42.4771 14.9343L42.3854 14.9741L42.3855 14.9743L42.4771 14.9343ZM43.23 15.7936L43.1786 15.8793L43.23 15.7936ZM45.2432 16.0554L45.2585 16.1543L45.2599 16.1541L45.2432 16.0554ZM45.771 15.9409L45.7976 16.0373L45.871 16.017V15.9409H45.771ZM45.771 14.1078H45.871V14.0078H45.771V14.1078ZM44.3757 14.1078H44.2757V14.2078H44.3757V14.1078ZM44.3757 13.5858H46.4666V13.3858H44.3757V13.5858ZM46.3666 13.4858V16.3869H46.5666V13.4858H46.3666ZM46.4345 16.2922C46.1264 16.3967 45.8087 16.4744 45.4815 16.5254L45.5123 16.723C45.8507 16.6703 46.1795 16.5899 46.4988 16.4816L46.4345 16.2922ZM45.4814 16.5254C45.1574 16.5763 44.7931 16.602 44.388 16.602V16.802C44.8013 16.802 45.1762 16.7758 45.5124 16.723L45.4814 16.5254ZM44.388 16.602C43.7792 16.602 43.2724 16.4805 42.8628 16.2431L42.7625 16.4161C43.2095 16.6752 43.7529 16.802 44.388 16.802V16.602ZM42.8631 16.2432C42.4553 16.0054 42.1456 15.6673 41.933 15.2264L41.7528 15.3133C41.9821 15.7889 42.3189 16.1574 42.7623 16.416L42.8631 16.2432ZM41.9331 15.2266C41.7199 14.7819 41.6115 14.2504 41.6115 13.629H41.4115C41.4115 14.2734 41.524 14.8357 41.7527 15.313L41.9331 15.2266ZM41.6115 13.629C41.6115 13.023 41.7302 12.4994 41.9641 12.0553L41.7872 11.9621C41.5355 12.4399 41.4115 12.9966 41.4115 13.629H41.6115ZM41.9639 12.0557C42.2002 11.6119 42.5395 11.2686 42.9836 11.0242L42.8872 10.849C42.4093 11.112 42.0421 11.4834 41.7874 11.9617L41.9639 12.0557ZM42.9838 11.0241C43.4297 10.7775 43.9688 10.652 44.6049 10.652V10.452C43.9425 10.452 43.3686 10.5828 42.887 10.8491L42.9838 11.0241ZM44.6049 10.652C44.9314 10.652 45.2395 10.6828 45.5294 10.7439L45.5707 10.5482C45.266 10.4839 44.944 10.452 44.6049 10.452V10.652ZM45.5305 10.7442C45.8242 10.8029 46.0955 10.8868 46.3448 10.9955L46.4248 10.8122C46.1612 10.6973 45.8761 10.6093 45.5697 10.548L45.5305 10.7442ZM46.2932 10.8637L46.0273 11.4693L46.2104 11.5497L46.4764 10.9441L46.2932 10.8637ZM46.1585 11.4177C45.9321 11.3198 45.6828 11.2364 45.4111 11.1671L45.3617 11.3609C45.6246 11.4279 45.8637 11.5082 46.0792 11.6013L46.1585 11.4177ZM45.4114 11.1671C45.1383 11.0967 44.8557 11.0617 44.564 11.0617V11.2617C44.8396 11.2617 45.1053 11.2948 45.3614 11.3608L45.4114 11.1671ZM44.564 11.0617C44.0618 11.0617 43.625 11.1655 43.2577 11.3779L43.3578 11.551C43.6889 11.3596 44.0895 11.2617 44.564 11.2617V11.0617ZM43.2574 11.3781C42.8938 11.5899 42.6145 11.8896 42.4206 12.2747L42.5992 12.3646C42.7762 12.0131 43.0289 11.7427 43.3581 11.5509L43.2574 11.3781ZM42.4203 12.2752C42.2293 12.66 42.1357 13.1124 42.1357 13.629H42.3357C42.3357 13.1363 42.4249 12.7158 42.5994 12.3641L42.4203 12.2752ZM42.1357 13.629C42.1357 14.1388 42.2179 14.588 42.3854 14.9741L42.5689 14.8945C42.4145 14.5386 42.3357 14.1176 42.3357 13.629H42.1357ZM42.3855 14.9743C42.5547 15.3614 42.8196 15.6639 43.1786 15.8793L43.2815 15.7078C42.9585 15.514 42.7215 15.2437 42.5688 14.8943L42.3855 14.9743ZM43.1786 15.8793C43.5396 16.096 43.9982 16.2005 44.5476 16.2005V16.0005C44.0222 16.0005 43.6024 15.9004 43.2815 15.7078L43.1786 15.8793ZM44.5476 16.2005C44.821 16.2005 45.0583 16.1853 45.2585 16.1543L45.2279 15.9566C45.0408 15.9856 44.8143 16.0005 44.5476 16.0005V16.2005ZM45.2599 16.1541C45.4563 16.1209 45.6356 16.082 45.7976 16.0373L45.7444 15.8445C45.5901 15.8871 45.4175 15.9246 45.2265 15.9568L45.2599 16.1541ZM45.871 15.9409V14.1078H45.671V15.9409H45.871ZM45.771 14.0078H44.3757V14.2078H45.771V14.0078ZM44.4757 14.1078V13.4858H44.2757V14.1078H44.4757ZM51.2459 16.6201V16.7201H51.3459V16.6201H51.2459ZM47.9151 16.6201H47.8151V16.7201H47.9151V16.6201ZM47.9151 10.6379V10.5379H47.8151V10.6379H47.9151ZM51.2459 10.6379H51.3459V10.5379H51.2459V10.6379ZM51.2459 11.2517V11.3517H51.3459V11.2517H51.2459ZM48.6107 11.2517V11.1517H48.5107V11.2517H48.6107ZM48.6107 13.1871H48.5107V13.2871H48.6107V13.1871ZM51.0945 13.1871H51.1945V13.0871H51.0945V13.1871ZM51.0945 13.7927V13.8927H51.1945V13.7927H51.0945ZM48.6107 13.7927V13.6927H48.5107V13.7927H48.6107ZM48.6107 16.0063H48.5107V16.1063H48.6107V16.0063ZM51.2459 16.0063H51.3459V15.9063H51.2459V16.0063ZM51.2459 16.5201H47.9151V16.7201H51.2459V16.5201ZM48.0151 16.6201V10.6379H47.8151V16.6201H48.0151ZM47.9151 10.7379H51.2459V10.5379H47.9151V10.7379ZM51.1459 10.6379V11.2517H51.3459V10.6379H51.1459ZM51.2459 11.1517H48.6107V11.3517H51.2459V11.1517ZM48.5107 11.2517V13.1871H48.7107V11.2517H48.5107ZM48.6107 13.2871H51.0945V13.0871H48.6107V13.2871ZM50.9945 13.1871V13.7927H51.1945V13.1871H50.9945ZM51.0945 13.6927H48.6107V13.8927H51.0945V13.6927ZM48.5107 13.7927V16.0063H48.7107V13.7927H48.5107ZM48.6107 16.1063H51.2459V15.9063H48.6107V16.1063ZM51.1459 16.0063V16.6201H51.3459V16.0063H51.1459ZM54.4088 16.6201V16.7201H54.5088V16.6201H54.4088ZM53.7091 16.6201H53.6091V16.7201H53.7091V16.6201ZM53.7091 11.2517H53.8091V11.1517H53.7091V11.2517ZM51.8269 11.2517H51.7269V11.3517H51.8269V11.2517ZM51.8269 10.6379V10.5379H51.7269V10.6379H51.8269ZM56.2829 10.6379H56.3829V10.5379H56.2829V10.6379ZM56.2829 11.2517V11.3517H56.3829V11.2517H56.2829ZM54.4088 11.2517V11.1517H54.3088V11.2517H54.4088ZM54.4088 16.5201H53.7091V16.7201H54.4088V16.5201ZM53.8091 16.6201V11.2517H53.6091V16.6201H53.8091ZM53.7091 11.1517H51.8269V11.3517H53.7091V11.1517ZM51.9269 11.2517V10.6379H51.7269V11.2517H51.9269ZM51.8269 10.7379H56.2829V10.5379H51.8269V10.7379ZM56.1829 10.6379V11.2517H56.3829V10.6379H56.1829ZM56.2829 11.1517H54.4088V11.3517H56.2829V11.1517ZM54.3088 11.2517V16.6201H54.5088V11.2517H54.3088ZM59.364 16.6201H59.264V16.7201H59.364V16.6201ZM59.364 10.6379V10.5379H59.264V10.6379H59.364ZM60.0596 10.6379H60.1596V10.5379H60.0596V10.6379ZM60.0596 16.6201V16.7201H60.1596V16.6201H60.0596ZM59.464 16.6201V10.6379H59.264V16.6201H59.464ZM59.364 10.7379H60.0596V10.5379H59.364V10.7379ZM59.9596 10.6379V16.6201H60.1596V10.6379H59.9596ZM60.0596 16.5201H59.364V16.7201H60.0596V16.5201ZM63.5417 16.6201V16.7201H63.6417V16.6201H63.5417ZM62.842 16.6201H62.742V16.7201H62.842V16.6201ZM62.842 11.2517H62.942V11.1517H62.842V11.2517ZM60.9598 11.2517H60.8598V11.3517H60.9598V11.2517ZM60.9598 10.6379V10.5379H60.8598V10.6379H60.9598ZM65.4158 10.6379H65.5158V10.5379H65.4158V10.6379ZM65.4158 11.2517V11.3517H65.5158V11.2517H65.4158ZM63.5417 11.2517V11.1517H63.4417V11.2517H63.5417ZM63.5417 16.5201H62.842V16.7201H63.5417V16.5201ZM62.942 16.6201V11.2517H62.742V16.6201H62.942ZM62.842 11.1517H60.9598V11.3517H62.842V11.1517ZM61.0598 11.2517V10.6379H60.8598V11.2517H61.0598ZM60.9598 10.7379H65.4158V10.5379H60.9598V10.7379ZM65.3158 10.6379V11.2517H65.5158V10.6379H65.3158ZM65.4158 11.1517H63.5417V11.3517H65.4158V11.1517ZM63.4417 11.2517V16.6201H63.6417V11.2517H63.4417ZM73.5093 14.8811L73.6048 14.9109L73.6049 14.9107L73.5093 14.8811ZM72.9856 15.855L72.9094 15.7902L72.9093 15.7903L72.9856 15.855ZM72.1304 16.481L72.17 16.5728L72.1304 16.481ZM69.7285 16.481L69.6891 16.5729L69.6894 16.573L69.7285 16.481ZM68.8692 15.8509L68.7923 15.9147L68.7927 15.9152L68.8692 15.8509ZM68.3578 14.8729L68.2618 14.9012L68.262 14.9018L68.3578 14.8729ZM69.4093 10.9284L69.3565 10.8435L69.3562 10.8437L69.4093 10.9284ZM72.4496 10.9243L72.3963 11.009L72.3966 11.0092L72.4496 10.9243ZM73.3702 11.9964L73.279 12.0374L73.2793 12.0381L73.3702 11.9964ZM69.8022 15.7977L69.746 15.8804L69.7463 15.8806L69.8022 15.7977ZM72.0813 15.7977L72.0251 15.7149L72.0248 15.7152L72.0813 15.7977ZM72.4659 11.8123L72.3854 11.8716L72.3859 11.8722L72.4659 11.8123ZM69.8103 11.4563L69.755 11.3729L69.8103 11.4563ZM69.1393 12.3074L69.0464 12.2702L69.0463 12.2706L69.1393 12.3074ZM73.5853 13.6208C73.5853 14.0734 73.5277 14.4833 73.4138 14.8516L73.6049 14.9107C73.7256 14.5205 73.7853 14.0903 73.7853 13.6208H73.5853ZM73.4139 14.8514C73.3002 15.2163 73.1317 15.5287 72.9094 15.7902L73.0618 15.9197C73.3032 15.6357 73.4839 15.2988 73.6048 14.9109L73.4139 14.8514ZM72.9093 15.7903C72.6906 16.048 72.4183 16.2477 72.0907 16.3892L72.17 16.5728C72.5244 16.4197 72.8222 16.202 73.0618 15.9196L72.9093 15.7903ZM72.0907 16.3892C71.7646 16.5301 71.3831 16.602 70.9438 16.602V16.802C71.4047 16.802 71.8142 16.7265 72.17 16.5728L72.0907 16.3892ZM70.9438 16.602C70.4904 16.602 70.0992 16.5299 69.7676 16.389L69.6894 16.573C70.0507 16.7267 70.4696 16.802 70.9438 16.802V16.602ZM69.7679 16.3891C69.4378 16.2476 69.1644 16.0467 68.9458 15.7865L68.7927 15.9152C69.0324 16.2005 69.3318 16.4198 69.6891 16.5729L69.7679 16.3891ZM68.9462 15.787C68.7292 15.5256 68.5646 15.2119 68.4535 14.844L68.262 14.9018C68.38 15.2923 68.5564 15.6305 68.7923 15.9147L68.9462 15.787ZM68.4537 14.8446C68.3449 14.476 68.29 14.0656 68.29 13.6126H68.09C68.09 14.0817 68.1469 14.5115 68.2618 14.9012L68.4537 14.8446ZM68.29 13.6126C68.29 13.0125 68.3891 12.4906 68.5844 12.0447L68.4012 11.9645C68.1927 12.4405 68.09 12.9907 68.09 13.6126H68.29ZM68.5844 12.0447C68.7786 11.6013 69.071 11.2584 69.4624 11.0132L69.3562 10.8437C68.9293 11.1112 68.6107 11.4859 68.4012 11.9645L68.5844 12.0447ZM69.4622 11.0133C69.8544 10.7692 70.3504 10.6438 70.956 10.6438V10.4438C70.3232 10.4438 69.7881 10.5749 69.3565 10.8435L69.4622 11.0133ZM70.956 10.6438C71.5337 10.6438 72.012 10.7675 72.3963 11.009L72.5028 10.8397C72.0796 10.5738 71.5623 10.4438 70.956 10.4438V10.6438ZM72.3966 11.0092C72.7853 11.2518 73.0793 11.5934 73.279 12.0374L73.4614 11.9554C73.2464 11.4773 72.9267 11.1043 72.5025 10.8395L72.3966 11.0092ZM73.2793 12.0381C73.4821 12.4805 73.5853 13.0072 73.5853 13.6208H73.7853C73.7853 12.9851 73.6784 12.4288 73.4611 11.9547L73.2793 12.0381ZM68.8224 13.6208C68.8224 14.1374 68.896 14.5894 69.0461 14.9747L69.2325 14.9021C69.0934 14.5454 69.0224 14.1191 69.0224 13.6208H68.8224ZM69.0461 14.9747C69.1972 15.3624 69.4301 15.666 69.746 15.8804L69.8583 15.7149C69.5795 15.5257 69.3705 15.2563 69.2325 14.9021L69.0461 14.9747ZM69.7463 15.8806C70.0669 16.0963 70.4683 16.2005 70.9438 16.2005V16.0005C70.4972 16.0005 70.1375 15.9028 69.858 15.7147L69.7463 15.8806ZM70.9438 16.2005C71.4217 16.2005 71.8222 16.0964 72.1378 15.8802L72.0248 15.7152C71.7511 15.9027 71.3933 16.0005 70.9438 16.0005V16.2005ZM72.1375 15.8804C72.4535 15.6658 72.6851 15.3621 72.8335 14.9741L72.6467 14.9027C72.5113 15.2567 72.3038 15.5258 72.0251 15.7149L72.1375 15.8804ZM72.8335 14.9741C72.9807 14.589 73.0528 14.1372 73.0528 13.6208H72.8528C72.8528 14.1192 72.7831 14.5458 72.6467 14.9027L72.8335 14.9741ZM73.0528 13.6208C73.0528 12.8361 72.888 12.2093 72.546 11.7523L72.3859 11.8722C72.6931 12.2826 72.8528 12.8615 72.8528 13.6208H73.0528ZM72.5464 11.7529C72.2008 11.2843 71.6633 11.0576 70.956 11.0576V11.2576C71.6182 11.2576 72.0873 11.4673 72.3854 11.8716L72.5464 11.7529ZM70.956 11.0576C70.4782 11.0576 70.0756 11.1602 69.755 11.3729L69.8656 11.5396C70.1452 11.3541 70.5064 11.2576 70.956 11.2576V11.0576ZM69.755 11.3729C69.4364 11.5844 69.2005 11.8851 69.0464 12.2702L69.2321 12.3445C69.3727 11.9931 69.5842 11.7264 69.8656 11.5396L69.755 11.3729ZM69.0463 12.2706C68.8959 12.6507 68.8224 13.1017 68.8224 13.6208H69.0224C69.0224 13.1197 69.0935 12.6951 69.2323 12.3441L69.0463 12.2706ZM79.6961 16.6201V16.7201H79.7961V16.6201H79.6961ZM78.8941 16.6201L78.8102 16.6746L78.8398 16.7201H78.8941V16.6201ZM75.633 11.5954L75.7169 11.5409L75.6873 11.4954H75.633V11.5954ZM75.6002 11.5954V11.4954H75.4939L75.5004 11.6015L75.6002 11.5954ZM75.6289 12.0537L75.5291 12.06L75.5291 12.0601L75.6289 12.0537ZM75.6534 12.5979L75.5535 12.6007L75.5535 12.6022L75.6534 12.5979ZM75.6657 16.6201V16.7201H75.7657V16.6201H75.6657ZM75.0192 16.6201H74.9192V16.7201H75.0192V16.6201ZM75.0192 10.6379V10.5379H74.9192V10.6379H75.0192ZM75.8171 10.6379L75.901 10.5835L75.8714 10.5379H75.8171V10.6379ZM79.066 15.6463L78.9821 15.7007L79.0117 15.7463H79.066V15.6463ZM79.0946 15.6463V15.7463H79.2005L79.1945 15.6406L79.0946 15.6463ZM79.0742 15.2412L78.9743 15.2458L78.9743 15.2459L79.0742 15.2412ZM79.0496 14.6724L78.9496 14.6751L78.9497 14.6765L79.0496 14.6724ZM79.0414 10.6379V10.5379H78.9414V10.6379H79.0414ZM79.6961 10.6379H79.7961V10.5379H79.6961V10.6379ZM79.6961 16.5201H78.8941V16.7201H79.6961V16.5201ZM78.978 16.5657L75.7169 11.5409L75.5491 11.6498L78.8102 16.6746L78.978 16.5657ZM75.633 11.4954H75.6002V11.6954H75.633V11.4954ZM75.5004 11.6015C75.5086 11.7353 75.5182 11.8881 75.5291 12.06L75.7287 12.0473C75.7178 11.8755 75.7082 11.7229 75.7 11.5893L75.5004 11.6015ZM75.5291 12.0601C75.5399 12.2279 75.548 12.4081 75.5535 12.6007L75.7534 12.5951C75.7479 12.4003 75.7397 12.2177 75.7287 12.0472L75.5291 12.0601ZM75.5535 12.6022C75.5616 12.7916 75.5657 12.9852 75.5657 13.183H75.7657C75.7657 12.9825 75.7616 12.786 75.7533 12.5936L75.5535 12.6022ZM75.5657 13.183V16.6201H75.7657V13.183H75.5657ZM75.6657 16.5201H75.0192V16.7201H75.6657V16.5201ZM75.1192 16.6201V10.6379H74.9192V16.6201H75.1192ZM75.0192 10.7379H75.8171V10.5379H75.0192V10.7379ZM75.7332 10.6923L78.9821 15.7007L79.1499 15.5918L75.901 10.5835L75.7332 10.6923ZM79.066 15.7463H79.0946V15.5463H79.066V15.7463ZM79.1945 15.6406C79.189 15.5456 79.1822 15.411 79.1741 15.2365L78.9743 15.2459C78.9825 15.4206 78.9893 15.556 78.9948 15.652L79.1945 15.6406ZM79.1741 15.2366C79.1659 15.0595 79.1577 14.8701 79.1495 14.6684L78.9497 14.6765C78.9579 14.8785 78.9661 15.0683 78.9743 15.2458L79.1741 15.2366ZM79.1496 14.6698C79.1441 14.4659 79.1414 14.2772 79.1414 14.1037H78.9414C78.9414 14.2793 78.9442 14.4698 78.9497 14.6751L79.1496 14.6698ZM79.1414 14.1037V10.6379H78.9414V14.1037H79.1414ZM79.0414 10.7379H79.6961V10.5379H79.0414V10.7379ZM79.5961 10.6379V16.6201H79.7961V10.6379H79.5961Z" fill="white"/>
<path d="M68.14 24.7499C67.2974 24.7519 66.4744 25.0037 65.7749 25.4734C65.0755 25.9432 64.531 26.6098 64.2104 27.3889C63.8898 28.1681 63.8075 29.0248 63.9738 29.8508C64.1401 30.6768 64.5476 31.4349 65.1448 32.0293C65.742 32.6236 66.502 33.0276 67.3287 33.19C68.1555 33.3524 69.0118 33.2661 69.7895 32.9418C70.5671 32.6175 71.2311 32.07 71.6976 31.3683C72.164 30.6667 72.412 29.8425 72.41 28.9999C72.4181 28.4379 72.3131 27.8799 72.1012 27.3593C71.8892 26.8386 71.5746 26.366 71.1762 25.9694C70.7778 25.5729 70.3037 25.2606 69.7821 25.051C69.2604 24.8415 68.702 24.7391 68.14 24.7499ZM68.14 31.5799C67.6236 31.616 67.1082 31.496 66.6609 31.2353C66.2137 30.9747 65.8552 30.5855 65.632 30.1184C65.4088 29.6512 65.3314 29.1278 65.4097 28.6161C65.4879 28.1043 65.7184 27.628 66.0709 27.249C66.4235 26.8699 66.882 26.6057 67.3867 26.4907C67.8915 26.3757 68.4192 26.4152 68.9012 26.604C69.3832 26.7929 69.7972 27.1223 70.0895 27.5496C70.3818 27.9769 70.5387 28.4822 70.54 28.9999C70.5561 29.3279 70.5063 29.6559 70.3937 29.9643C70.2811 30.2728 70.1078 30.5556 69.8841 30.7961C69.6604 31.0366 69.3909 31.2298 69.0913 31.3644C68.7918 31.499 68.4683 31.5723 68.14 31.5799ZM58.82 24.7499C57.9774 24.7519 57.1544 25.0037 56.4549 25.4734C55.7555 25.9432 55.211 26.6098 54.8904 27.3889C54.5698 28.1681 54.4875 29.0248 54.6538 29.8508C54.8201 30.6768 55.2276 31.4349 55.8248 32.0293C56.422 32.6236 57.182 33.0276 58.0087 33.19C58.8355 33.3524 59.6918 33.2661 60.4695 32.9418C61.2471 32.6175 61.9111 32.07 62.3776 31.3683C62.844 30.6667 63.0919 29.8425 63.09 28.9999C63.0981 28.4379 62.9931 27.8799 62.7812 27.3593C62.5692 26.8386 62.2546 26.366 61.8562 25.9694C61.4578 25.5729 60.9837 25.2606 60.4621 25.051C59.9404 24.8415 59.382 24.7391 58.82 24.7499ZM58.82 31.5799C58.3036 31.616 57.7882 31.496 57.3409 31.2353C56.8937 30.9747 56.5352 30.5855 56.312 30.1184C56.0888 29.6512 56.0114 29.1278 56.0897 28.6161C56.1679 28.1043 56.3984 27.628 56.7509 27.249C57.1035 26.8699 57.562 26.6057 58.0667 26.4907C58.5715 26.3757 59.0992 26.4152 59.5812 26.604C60.0632 26.7929 60.4772 27.1223 60.7695 27.5496C61.0618 27.9769 61.2187 28.4822 61.22 28.9999C61.2361 29.3279 61.1863 29.6559 61.0737 29.9643C60.9611 30.2728 60.7878 30.5556 60.5641 30.7961C60.3404 31.0366 60.0709 31.2298 59.7713 31.3644C59.4718 31.499 59.1483 31.5723 58.82 31.5799ZM47.74 26.0599V27.8599H52.06C51.9922 28.7077 51.6398 29.5077 51.06 30.1299C50.6266 30.5714 50.1054 30.9171 49.5301 31.1444C48.9547 31.3718 48.3381 31.4759 47.72 31.4499C46.4469 31.4499 45.226 30.9442 44.3259 30.044C43.4257 29.1439 42.92 27.923 42.92 26.6499C42.92 25.3769 43.4257 24.156 44.3259 23.2558C45.226 22.3556 46.4469 21.8499 47.72 21.8499C48.9404 21.8318 50.1189 22.2952 51 23.1399L52.27 21.8699C51.674 21.2804 50.9663 20.8158 50.1884 20.5033C49.4106 20.1908 48.5782 20.0366 47.74 20.0499C46.851 20.0153 45.9641 20.1605 45.1326 20.4769C44.3011 20.7932 43.5419 21.2742 42.9007 21.8909C42.2595 22.5077 41.7494 23.2475 41.401 24.0661C41.0525 24.8847 40.8729 25.7652 40.8729 26.6549C40.8729 27.5446 41.0525 28.4251 41.401 29.2437C41.7494 30.0623 42.2595 30.8022 42.9007 31.4189C43.5419 32.0357 44.3011 32.5166 45.1326 32.833C45.9641 33.1493 46.851 33.2945 47.74 33.2599C48.5954 33.2941 49.4484 33.1469 50.2429 32.8281C51.0374 32.5092 51.7555 32.0259 52.35 31.4099C53.4001 30.2563 53.9596 28.7391 53.91 27.1799C53.9136 26.8046 53.8834 26.4298 53.82 26.0599H47.74ZM93.05 27.4599C92.7892 26.6927 92.3015 26.0227 91.6515 25.5388C91.0015 25.0548 90.2198 24.7797 89.41 24.7499C88.863 24.7489 88.3216 24.86 87.8192 25.0765C87.3169 25.2929 86.8643 25.6101 86.4894 26.0085C86.1145 26.4068 85.8252 26.8778 85.6396 27.3923C85.4539 27.9068 85.3758 28.454 85.41 28.9999C85.4014 29.9128 85.6884 30.8039 86.2281 31.5402C86.7678 32.2765 87.5312 32.8184 88.4042 33.0851C89.2773 33.3517 90.2132 33.3288 91.0722 33.0196C91.9311 32.7105 92.667 32.1318 93.17 31.3699L91.72 30.3699C91.5038 30.7302 91.1972 31.0277 90.8306 31.2329C90.464 31.4382 90.0501 31.544 89.63 31.5399C89.1965 31.5578 88.7678 31.4442 88.4002 31.214C88.0325 30.9837 87.7431 30.6477 87.57 30.2499L93.26 27.8999L93.05 27.4599ZM87.25 28.8799C87.2297 28.5693 87.2716 28.2578 87.3733 27.9635C87.4749 27.6693 87.6342 27.3983 87.8419 27.1664C88.0495 26.9346 88.3014 26.7464 88.5827 26.6131C88.8639 26.4798 89.169 26.4039 89.48 26.3899C89.8022 26.3703 90.123 26.4461 90.4023 26.608C90.6816 26.7699 90.9069 27.0106 91.05 27.2999L87.25 28.8799ZM82.63 32.9999H84.5V20.4999H82.63V32.9999ZM79.57 25.6999H79.5C79.2206 25.3818 78.8759 25.1277 78.4893 24.9551C78.1027 24.7825 77.6833 24.6955 77.26 24.6999C76.1672 24.7529 75.1366 25.2243 74.382 26.0165C73.6273 26.8087 73.2063 27.8608 73.2063 28.9549C73.2063 30.049 73.6273 31.1012 74.382 31.8933C75.1366 32.6855 76.1672 33.1569 77.26 33.2099C77.6839 33.2184 78.1046 33.1332 78.4918 32.9603C78.879 32.7875 79.2233 32.5312 79.5 32.2099H79.57V32.8199C79.57 34.4499 78.7 35.3199 77.3 35.3199C76.8323 35.3096 76.3782 35.1606 75.9954 34.8918C75.6126 34.6229 75.3183 34.2464 75.15 33.8099L73.53 34.4799C73.8295 35.2322 74.3502 35.8758 75.0234 36.3258C75.6965 36.7757 76.4904 37.0108 77.3 36.9999C79.49 36.9999 81.3 35.7099 81.3 32.5699V24.9999H79.57V25.6999ZM77.42 31.5799C76.7648 31.5391 76.1498 31.25 75.7003 30.7716C75.2508 30.2932 75.0005 29.6614 75.0005 29.0049C75.0005 28.3485 75.2508 27.7167 75.7003 27.2383C76.1498 26.7598 76.7648 26.4708 77.42 26.4299C77.7402 26.4437 78.0544 26.5218 78.3438 26.6596C78.6333 26.7973 78.8921 26.9918 79.1048 27.2316C79.3175 27.4714 79.4798 27.7515 79.5821 28.0553C79.6843 28.3591 79.7244 28.6803 79.7 28.9999C79.7273 29.3206 79.6892 29.6435 79.5881 29.9491C79.4871 30.2546 79.3251 30.5365 79.1119 30.7777C78.8988 31.0189 78.639 31.2143 78.3482 31.3522C78.0574 31.4901 77.7416 31.5676 77.42 31.5799ZM101.81 20.4999H97.33V32.9999H99.2V28.2599H101.81C102.343 28.2982 102.878 28.2263 103.382 28.0487C103.886 27.871 104.348 27.5915 104.739 27.2274C105.13 26.8634 105.442 26.4227 105.655 25.9328C105.869 25.4428 105.979 24.9142 105.979 24.3799C105.979 23.8456 105.869 23.317 105.655 22.8271C105.442 22.3372 105.13 21.8965 104.739 21.5324C104.348 21.1684 103.886 20.8888 103.382 20.7112C102.878 20.5336 102.343 20.4616 101.81 20.4999ZM101.81 26.4999H99.2V22.2399H101.85C102.131 22.2399 102.409 22.2953 102.669 22.4028C102.929 22.5104 103.164 22.668 103.363 22.8667C103.562 23.0654 103.72 23.3013 103.827 23.561C103.935 23.8206 103.99 24.0989 103.99 24.3799C103.99 24.661 103.935 24.9392 103.827 25.1989C103.72 25.4585 103.562 25.6944 103.363 25.8931C103.164 26.0918 102.929 26.2495 102.669 26.357C102.409 26.4646 102.131 26.5199 101.85 26.5199L101.81 26.4999ZM113.35 24.7099C112.669 24.6679 111.991 24.8265 111.399 25.1659C110.807 25.5054 110.328 26.0109 110.02 26.6199L111.67 27.3099C111.837 27.0093 112.087 26.7634 112.39 26.602C112.694 26.4405 113.038 26.3703 113.38 26.3999C113.617 26.3722 113.858 26.392 114.088 26.4582C114.317 26.5245 114.531 26.6358 114.718 26.7856C114.904 26.9355 115.058 27.1209 115.172 27.3311C115.286 27.5413 115.356 27.7721 115.38 28.0099V28.1299C114.779 27.8138 114.109 27.6491 113.43 27.6499C111.65 27.6499 109.83 28.6499 109.83 30.4699C109.848 30.8568 109.943 31.2361 110.11 31.5855C110.277 31.9348 110.513 32.247 110.803 32.5035C111.093 32.7601 111.431 32.9557 111.799 33.0787C112.166 33.2018 112.554 33.2498 112.94 33.2199C113.409 33.2459 113.877 33.1466 114.295 32.9322C114.713 32.7178 115.067 32.3961 115.32 31.9999H115.38V32.9999H117.18V28.1899C117.18 25.9999 115.52 24.7299 113.39 24.7299L113.35 24.7099ZM113.12 31.5599C112.51 31.5599 111.66 31.2499 111.66 30.4999C111.66 29.4999 112.72 29.1599 113.66 29.1599C114.254 29.1453 114.841 29.2903 115.36 29.5799C115.297 30.123 115.04 30.6249 114.635 30.9926C114.231 31.3604 113.707 31.569 113.16 31.5799L113.12 31.5599ZM123.74 24.9999L121.6 30.4199H121.54L119.32 24.9999H117.32L120.65 32.5799L118.75 36.7899H120.7L125.82 24.9999H123.74ZM106.94 32.9999H108.8V20.4999H106.94V32.9999Z" fill="white"/>
<path d="M20.7199 22.4199L10.0699 33.7199C10.1863 34.1473 10.3993 34.5423 10.6926 34.8742C10.9858 35.2062 11.3515 35.4663 11.7613 35.6345C12.1711 35.8026 12.614 35.8744 13.056 35.8441C13.4979 35.8138 13.9269 35.6824 14.3099 35.4599L26.3099 28.5399L20.7199 22.4199Z" fill="#EA4335"/>
<path d="M31.49 20.5L26.31 17.5L20.49 22.69L26.33 28.54L31.48 25.54C31.9378 25.2948 32.3205 24.93 32.5873 24.4845C32.8541 24.0389 32.995 23.5293 32.995 23.01C32.995 22.4907 32.8541 21.9811 32.5873 21.5355C32.3205 21.09 31.9378 20.7252 31.48 20.48L31.49 20.5Z" fill="#FBBC04"/>
<path d="M10.07 12.2803C10.0172 12.5165 9.99366 12.7583 10 13.0003V33.0003C10.0018 33.2502 10.0354 33.4989 10.1 33.7403L21.1 22.7403L10.07 12.2803Z" fill="#4285F4"/>
<path d="M20.8 22.9996L26.31 17.4896L14.31 10.5496C13.8592 10.2816 13.3445 10.14 12.82 10.1396C12.1874 10.1415 11.5728 10.3508 11.0706 10.7356C10.5685 11.1204 10.2064 11.6593 10.04 12.2696L20.8 22.9996Z" fill="#34A853"/>
</svg>
