<svg width="19" height="19" viewBox="0 0 19 19" fill="none" xmlns="http://www.w3.org/2000/svg">
<path d="M10.3081 13.471L10.3841 12.407L11.3111 11.878C12.2011 11.3622 13.0189 10.7307 13.7431 9.99998C16.3831 7.35898 17.1891 4.25398 16.2181 3.28198C15.2461 2.31198 12.1411 3.11598 9.50005 5.75698C8.74005 6.51698 8.10305 7.34698 7.62205 8.18898L7.09205 9.11598L6.02905 9.19198C5.15671 9.25316 4.32893 9.60044 3.67405 10.18C4.92401 10.73 6.06043 11.5083 7.02505 12.475C8.00505 13.455 8.77705 14.592 9.32005 15.826C9.89958 15.1711 10.2469 14.3433 10.3081 13.471ZM7.33505 16.3C7.13394 16.5734 6.9123 16.8312 6.67205 17.071C5.50005 18.243 3.73205 18.596 1.36805 18.131C0.904051 15.768 1.25805 14 2.42805 12.828C2.67605 12.582 2.93405 12.36 3.20005 12.165C2.38026 11.7645 1.50419 11.4914 0.602051 11.355C0.892488 10.4433 1.39766 9.61473 2.07505 8.93898C3.09345 7.91804 4.44661 7.2997 5.88505 7.19798C6.48884 6.15316 7.22863 5.19311 8.08505 4.34298C11.4051 1.02298 15.6791 -0.0840244 17.6321 1.86798C19.5841 3.82098 18.476 8.09497 15.1571 11.414C14.3069 12.2704 13.3469 13.0102 12.3021 13.614C12.2003 15.0524 11.582 16.4056 10.5611 17.424C9.88587 18.1023 9.05713 18.6079 8.14505 18.898C8.00868 17.9958 7.73554 17.1198 7.33505 16.3ZM5.61005 13.89C5.44903 13.7286 5.26747 13.589 5.07005 13.475C4.63805 13.625 4.13005 13.955 3.66505 14.419C3.44605 14.639 3.17805 15.378 3.17505 16.324C4.12105 16.321 4.86305 16.05 5.08005 15.834C5.54505 15.368 5.87505 14.861 6.02405 14.429C5.9103 14.2316 5.77111 14.0501 5.61005 13.889V13.89ZM13.3881 6.10998C13.2904 6.01825 13.2121 5.90783 13.158 5.78527C13.1038 5.66271 13.0748 5.53052 13.0727 5.39654C13.0706 5.26256 13.0955 5.12953 13.1458 5.00535C13.1962 4.88117 13.271 4.76837 13.3657 4.67365C13.4605 4.57894 13.5734 4.50424 13.6976 4.45399C13.8218 4.40374 13.9549 4.37897 14.0888 4.38114C14.2228 4.38332 14.355 4.4124 14.4775 4.46665C14.6 4.52091 14.7104 4.59923 14.8021 4.69698C14.9745 4.88714 15.0672 5.13633 15.0609 5.39295C15.0547 5.64957 14.95 5.89397 14.7686 6.07555C14.5871 6.25712 14.3428 6.36197 14.0862 6.36838C13.8296 6.37479 13.5803 6.28227 13.3901 6.10998H13.3881Z" fill="#0F172A"/>
</svg>
